<svg width="195" height="150" viewBox="0 0 195 150" fill="none" xmlns="http://www.w3.org/2000/svg">
<path d="M180 25H142.5V18.75C142.5 13.7772 140.129 9.00806 135.91 5.49175C131.69 1.97544 125.967 0 120 0H75C69.0326 0 63.3097 1.97544 59.0901 5.49175C54.8705 9.00806 52.5 13.7772 52.5 18.75V25H15C11.0218 25 7.20644 26.317 4.3934 28.6612C1.58035 31.0054 0 34.1848 0 37.5V137.5C0 140.815 1.58035 143.995 4.3934 146.339C7.20644 148.683 11.0218 150 15 150H180C183.978 150 187.794 148.683 190.607 146.339C193.42 143.995 195 140.815 195 137.5V37.5C195 34.1848 193.42 31.0054 190.607 28.6612C187.794 26.317 183.978 25 180 25ZM15 56.25H180V118.75H15V56.25ZM67.5 18.75C67.5 17.0924 68.2902 15.5027 69.6967 14.3306C71.1032 13.1585 73.0109 12.5 75 12.5H120C121.989 12.5 123.897 13.1585 125.303 14.3306C126.71 15.5027 127.5 17.0924 127.5 18.75V25H67.5V18.75ZM180 37.5V56.25H15V37.5H180ZM180 137.5H15V118.75H180V137.5Z" fill="white"/>
</svg>
