<svg width="107" height="125" viewBox="0 0 107 125" fill="none" xmlns="http://www.w3.org/2000/svg">
<path d="M91.0004 39.9375C88.4136 39.9346 85.8674 40.5812 83.5954 41.8179C82.9159 39.7143 81.7953 37.78 80.3084 36.1443C78.8215 34.5086 77.0025 33.2091 74.9731 32.3328C72.9436 31.4564 70.7505 31.0234 68.5403 31.0626C66.3301 31.1018 64.1537 31.6124 62.1567 32.5602V15.5312C62.1567 11.4121 60.5204 7.46167 57.6077 4.549C54.695 1.63632 50.7446 0 46.6254 0C42.5063 0 38.5559 1.63632 35.6432 4.549C32.7305 7.46167 31.0942 11.4121 31.0942 15.5312V59.9062L28.9753 56.506C27.9507 54.7414 26.5887 53.1959 24.9669 51.9576C23.345 50.7194 21.4952 49.8128 19.523 49.2895C15.5399 48.2326 11.3001 48.8013 7.73629 50.8704C4.1725 52.9395 1.57663 56.3396 0.519744 60.3227C-0.537141 64.3058 0.031534 68.5456 2.10067 72.1094L4.69106 76.6745C23.7779 110.322 31.6766 124.25 57.7192 124.25C70.6606 124.235 83.0677 119.088 92.2186 109.937C101.37 100.786 106.517 88.3789 106.532 75.4375V55.4688C106.532 51.3496 104.895 47.3992 101.983 44.4865C99.07 41.5738 95.1196 39.9375 91.0004 39.9375ZM97.6567 75.4375C97.6449 86.026 93.4335 96.1774 85.9463 103.665C78.4591 111.152 68.3077 115.363 57.7192 115.375C36.8463 115.375 31.1829 105.391 12.4123 72.2869L9.81083 67.6996V67.6719C8.92753 66.1447 8.68668 64.3292 9.14119 62.6245C9.59571 60.9198 10.7084 59.4653 12.2348 58.5805C13.2459 57.9949 14.3945 57.6886 15.5629 57.693C16.733 57.6913 17.8829 57.9981 18.8966 58.5824C19.9104 59.1667 20.7522 60.0079 21.3372 61.0212C21.3598 61.0656 21.3858 61.1083 21.4149 61.1488L31.7709 77.7894C32.282 78.6054 33.0447 79.2331 33.9438 79.5776C34.843 79.9222 35.8298 79.9649 36.7553 79.6994C37.6809 79.4339 38.495 78.8745 39.0747 78.1057C39.6545 77.3369 39.9684 76.4004 39.9692 75.4375V15.5312C39.9692 13.7659 40.6705 12.0729 41.9188 10.8246C43.167 9.57628 44.8601 8.875 46.6254 8.875C48.3908 8.875 50.0838 9.57628 51.3321 10.8246C52.5804 12.0729 53.2817 13.7659 53.2817 15.5312V53.25C53.2817 54.4269 53.7492 55.5556 54.5814 56.3878C55.4136 57.22 56.5423 57.6875 57.7192 57.6875C58.8961 57.6875 60.0248 57.22 60.857 56.3878C61.6892 55.5556 62.1567 54.4269 62.1567 53.25V46.5938C62.1567 44.8284 62.858 43.1354 64.1063 41.8871C65.3545 40.6388 67.0476 39.9375 68.8129 39.9375C70.5783 39.9375 72.2713 40.6388 73.5196 41.8871C74.7679 43.1354 75.4692 44.8284 75.4692 46.5938V57.6875C75.4692 58.8644 75.9367 59.9931 76.7689 60.8253C77.6011 61.6575 78.7298 62.125 79.9067 62.125C81.0836 62.125 82.2123 61.6575 83.0445 60.8253C83.8767 59.9931 84.3442 58.8644 84.3442 57.6875V55.4688C84.3442 53.7034 85.0455 52.0104 86.2938 50.7621C87.542 49.5138 89.2351 48.8125 91.0004 48.8125C92.7658 48.8125 94.4588 49.5138 95.7071 50.7621C96.9554 52.0104 97.6567 53.7034 97.6567 55.4688V75.4375Z" fill="#0A3B62"/>
</svg>
