<svg width="130" height="130" viewBox="0 0 130 130" fill="none" xmlns="http://www.w3.org/2000/svg">
<path opacity="0.65" d="M71.964 120.715C71.964 122.551 71.5556 124.347 70.7904 125.873C70.0252 127.4 68.9375 128.59 67.665 129.293C66.3925 129.996 64.9923 130.18 63.6414 129.822C62.2905 129.463 61.0496 128.579 60.0757 127.28C59.1017 125.982 58.4385 124.328 58.1698 122.526C57.901 120.725 58.039 118.858 58.566 117.162C59.0931 115.465 59.9857 114.015 61.131 112.995C62.2762 111.975 63.6226 111.43 65 111.43C66.847 111.43 68.6183 112.408 69.9243 114.15C71.2303 115.891 71.964 118.252 71.964 120.715ZM128.303 30.1863C110.455 10.6675 88.0842 0 65 0C41.9157 0 19.5451 10.6675 1.69678 30.1863C1.22542 30.7024 0.834924 31.3374 0.547596 32.0547C0.260268 32.7721 0.0817345 33.558 0.0221868 34.3673C-0.0373609 35.1767 0.0232444 35.9938 0.200542 36.772C0.377841 37.5501 0.668359 38.2741 1.05551 38.9026C1.44266 39.531 1.91887 40.0517 2.45693 40.4347C2.995 40.8178 3.58439 41.0559 4.19145 41.1353C5.41747 41.2956 6.64105 40.8 7.59301 39.7576C23.7798 22.0597 44.0665 12.3876 65 12.3876C85.9335 12.3876 106.22 22.0597 122.407 39.7576C123.359 40.8 124.583 41.2956 125.809 41.1353C127.035 40.9749 128.163 40.1718 128.944 38.9026C129.726 37.6333 130.098 36.002 129.978 34.3673C129.858 32.7327 129.255 31.2287 128.303 30.1863ZM109.686 57.8633C96.9727 44.4435 81.2327 37.1418 65.0174 37.1418C48.8021 37.1418 33.0621 44.4435 20.3488 57.8633C19.3838 58.8832 18.7621 60.3724 18.6207 62.0034C18.4792 63.6344 18.8294 65.2736 19.5944 66.5602C20.3593 67.8469 21.4763 68.6757 22.6996 68.8644C23.9229 69.053 25.1523 68.586 26.1174 67.5661C37.1894 55.8812 50.8965 49.5235 65.0174 49.5235C79.1383 49.5235 92.8454 55.8812 103.917 67.5661C104.395 68.0712 104.943 68.4458 105.529 68.6686C106.116 68.8914 106.729 68.9581 107.335 68.8646C107.941 68.7712 108.527 68.5197 109.06 68.1243C109.593 67.7289 110.062 67.1974 110.44 66.5602C110.819 65.9232 111.1 65.1929 111.267 64.411C111.434 63.6291 111.484 62.811 111.414 62.0034C111.344 61.1958 111.156 60.4145 110.859 59.7041C110.562 58.9938 110.164 58.3682 109.686 57.8633ZM90.9643 85.5326C83.423 78.2253 74.3399 74.2894 65.0174 74.2894C55.6949 74.2894 46.6118 78.2253 39.0705 85.5326C38.0747 86.4991 37.4076 87.9535 37.2161 89.5758C37.0245 91.1981 37.3242 92.8554 38.0491 94.1831C38.7741 95.5108 39.8649 96.4002 41.0817 96.6556C42.2984 96.911 43.5415 96.5115 44.5373 95.5449C50.4887 89.7741 57.6585 86.6656 65.0174 86.6656C72.3763 86.6656 79.5461 89.7741 85.4975 95.5449C85.9906 96.0235 86.5496 96.3679 87.1425 96.5585C87.7354 96.749 88.3506 96.7821 88.9531 96.6556C89.5556 96.5291 90.1335 96.2457 90.6538 95.8215C91.1742 95.3972 91.6267 94.8405 91.9857 94.1831C92.3446 93.5257 92.603 92.7804 92.7459 91.9899C92.8888 91.1994 92.9136 90.3791 92.8187 89.5758C92.7239 88.7725 92.5113 88.002 92.1931 87.3083C91.8749 86.6145 91.4574 86.0112 90.9643 85.5326Z" fill="#D9D9D9" fill-opacity="0.75"/>
</svg>
